<svg xmlns="http://www.w3.org/2000/svg" width="205" height="82" viewBox="0 0 205 82">
  <g id="Group_1" data-name="Group 1" transform="translate(-93 -389)">
    <text id="P_NT" data-name="P    NT" transform="translate(93 455)" fill="#169142" font-size="70" font-family="Raleway-Bold, Raleway" font-weight="700" letter-spacing="-0.003em"><tspan x="0" y="0" xml:space="preserve">P    NT</tspan></text>
    <g id="f0c9bfe1f11d284ed599a46b5fa709c1" transform="translate(131 378.637)">
      <g id="Group_1-2" data-name="Group 1" transform="translate(10 25.3)">
        <path id="Path_1" data-name="Path 1" d="M48.82-1870.885l-9.8-2.671c-.3-.092-.455-.224-.455-.4q0-.224.37-.447l2.829-1.668-4.265-7.56-6.774,11.727-7.532-4.448,8.362-14.541a7.752,7.752,0,0,1,2.582-2.814,6.165,6.165,0,0,1,3.362-.991,6.151,6.151,0,0,1,3.362.991,7.752,7.752,0,0,1,2.582,2.814l5.882,10.386,2.806-1.668a.74.74,0,0,1,.393-.132q.3,0,.3.378a1.118,1.118,0,0,1-.045.269l-2.615,10.007a1.649,1.649,0,0,1-.163.332,1.092,1.092,0,0,1-.241.269.982.982,0,0,1-.314.166,1.231,1.231,0,0,1-.348.057A1.516,1.516,0,0,1,48.82-1870.885ZM17.055-1844.2a7.644,7.644,0,0,1-3.693-.877,6.161,6.161,0,0,1-2.514-2.482,6.388,6.388,0,0,1-.847-3.221,7.822,7.822,0,0,1,1.111-3.938L16.97-1865.1l-2.829-1.668c-.23-.149-.348-.3-.348-.447,0-.178.152-.309.455-.4l9.8-2.688a1.475,1.475,0,0,1,.281-.023,1.118,1.118,0,0,1,.455.1,1.02,1.02,0,0,1,.37.287,1.175,1.175,0,0,1,.219.436L28-1859.525a1.122,1.122,0,0,1,.045.287q0,.378-.3.378a.928.928,0,0,1-.415-.132l-2.806-1.668-4.288,7.56H33.151v8.9h-16.1Zm28.392,3.668-7.184-7.336a1.067,1.067,0,0,1-.3-.78,1.066,1.066,0,0,1,.3-.779l7.184-7.337a.665.665,0,0,1,.438-.246c.219,0,.326.195.326.579v3.336h8.559l-6.707-11.784,7.532-4.448,8.317,14.61A7.964,7.964,0,0,1,65-1850.778a6.41,6.41,0,0,1-.847,3.227,6.233,6.233,0,0,1-2.514,2.482,7.644,7.644,0,0,1-3.693.877H46.21v3.336c0,.384-.107.579-.326.579A.689.689,0,0,1,45.447-1840.53Z" transform="translate(-10 1894.7)" fill="#169142"/>
      </g>
    </g>
  </g>
</svg>
