<svg xmlns="http://www.w3.org/2000/svg" xmlns:xlink="http://www.w3.org/1999/xlink" width="478" height="752" viewBox="0 0 478 752">
  <defs>
    <clipPath id="clip-path">
      <rect id="Rectangle_2" data-name="Rectangle 2" width="650" height="754"/>
    </clipPath>
    <clipPath id="clip-path-2">
      <rect id="Rectangle_2-2" data-name="Rectangle 2" width="652" height="757"/>
    </clipPath>
    <filter id="Ellipse_1" x="-9" y="190" width="897" height="317" filterUnits="userSpaceOnUse">
      <feOffset dy="3" input="SourceAlpha"/>
      <feGaussianBlur stdDeviation="3" result="blur"/>
      <feFlood flood-opacity="0.161"/>
      <feComposite operator="in" in2="blur"/>
      <feComposite in="SourceGraphic"/>
    </filter>
    <filter id="Ellipse_2" x="27" y="280" width="138" height="137" filterUnits="userSpaceOnUse">
      <feOffset dy="3" input="SourceAlpha"/>
      <feGaussianBlur stdDeviation="3" result="blur-2"/>
      <feFlood flood-opacity="0.161"/>
      <feComposite operator="in" in2="blur-2"/>
      <feComposite in="SourceGraphic"/>
    </filter>
    <filter id="Rectangle_2-3" x="354" y="430" width="94" height="27" filterUnits="userSpaceOnUse">
      <feOffset dy="3" input="SourceAlpha"/>
      <feGaussianBlur stdDeviation="3" result="blur-3"/>
      <feFlood flood-opacity="0.161"/>
      <feComposite operator="in" in2="blur-3"/>
      <feComposite in="SourceGraphic"/>
    </filter>
    <filter id="Line_1" x="354" y="434.45" width="94.276" height="19" filterUnits="userSpaceOnUse">
      <feOffset dy="3" input="SourceAlpha"/>
      <feGaussianBlur stdDeviation="3" result="blur-4"/>
      <feFlood flood-opacity="0.161"/>
      <feComposite operator="in" in2="blur-4"/>
      <feComposite in="SourceGraphic"/>
    </filter>
    <clipPath id="clip-Web_1920_1">
      <rect width="478" height="752"/>
    </clipPath>
  </defs>
  <g id="Web_1920_1" data-name="Web 1920 – 1" clip-path="url(#clip-Web_1920_1)">
    <rect width="478" height="752" fill="#fff"/>
    <g id="Web_1920_1-2" data-name="Web 1920 – 1" clip-path="url(#clip-path)">
      <rect id="Rectangle_1" data-name="Rectangle 1" width="650" height="754" fill="#0d5526"/>
      <g id="Web_1920_1-3" data-name="Web 1920 – 1" clip-path="url(#clip-path-2)">
        <g transform="matrix(1, 0, 0, 1, 0, 0)" filter="url(#Ellipse_1)">
          <g id="Ellipse_1-2" data-name="Ellipse 1" transform="translate(0 196)" fill="rgba(255,255,255,0)" stroke="#0f5f2b" stroke-width="5">
            <ellipse cx="439.5" cy="149.5" rx="439.5" ry="149.5" stroke="none"/>
            <ellipse cx="439.5" cy="149.5" rx="437" ry="147" fill="none"/>
          </g>
        </g>
        <g transform="matrix(1, 0, 0, 1, 0, 0)" filter="url(#Ellipse_2)">
          <g id="Ellipse_2-2" data-name="Ellipse 2" transform="translate(36 286)" stroke="#0f5f2b" stroke-width="5">
            <ellipse cx="60" cy="59.5" rx="60" ry="59.5" stroke="none"/>
            <ellipse cx="60" cy="59.5" rx="57.5" ry="57" fill="none"/>
          </g>
        </g>
        <g id="Ellipse_3" data-name="Ellipse 3" transform="translate(54.048 303.531)" fill="#616161">
          <path d="M 42.07904052734375 83.65808868408203 C 36.4656867980957 83.65808868408203 31.0205078125 82.55880737304688 25.89475250244141 80.39080810546875 C 20.94360733032227 78.29663848876953 16.49692916870117 75.29857635498047 12.67821788787842 71.47986602783203 C 8.85950756072998 67.66114807128906 5.861440658569336 63.21447372436523 3.767273902893066 58.26332855224609 C 1.599273920059204 53.1375732421875 0.4999960958957672 47.6923942565918 0.4999960958957672 42.07904052734375 C 0.4999960958957672 36.4656867980957 1.599273920059204 31.0205078125 3.767273902893066 25.89475250244141 C 5.861440658569336 20.94360733032227 8.85950756072998 16.49692916870117 12.67821788787842 12.67821788787842 C 16.49692916870117 8.85950756072998 20.94360733032227 5.861440658569336 25.89475250244141 3.767273902893066 C 31.0205078125 1.599273920059204 36.4656867980957 0.4999960958957672 42.07904052734375 0.4999960958957672 C 47.6923942565918 0.4999960958957672 53.1375732421875 1.599273920059204 58.26332855224609 3.767273902893066 C 63.21447372436523 5.861440658569336 67.66114807128906 8.85950756072998 71.47986602783203 12.67821788787842 C 75.29857635498047 16.49692916870117 78.29663848876953 20.94360733032227 80.39080810546875 25.89475250244141 C 82.55880737304688 31.0205078125 83.65808868408203 36.4656867980957 83.65808868408203 42.07904052734375 C 83.65808868408203 47.6923942565918 82.55880737304688 53.1375732421875 80.39080810546875 58.26332855224609 C 78.29663848876953 63.21447372436523 75.29857635498047 67.66114807128906 71.47986602783203 71.47986602783203 C 67.66114807128906 75.29857635498047 63.21447372436523 78.29663848876953 58.26332855224609 80.39080810546875 C 53.1375732421875 82.55880737304688 47.6923942565918 83.65808868408203 42.07904052734375 83.65808868408203 Z" stroke="none"/>
          <path d="M 42.07904052734375 0.9999923706054688 C 36.53296279907227 0.9999923706054688 31.15331649780273 2.085983276367188 26.08953094482422 4.227783203125 C 21.1979866027832 6.296730041503906 16.80471801757813 9.258819580078125 13.03177642822266 13.03177642822266 C 9.258819580078125 16.80471801757813 6.296730041503906 21.1979866027832 4.227783203125 26.08953094482422 C 2.085983276367188 31.15331649780273 0.9999923706054688 36.53296279907227 0.9999923706054688 42.07904052734375 C 0.9999923706054688 47.62511825561523 2.085983276367188 53.0047607421875 4.227783203125 58.06855010986328 C 6.296730041503906 62.96009826660156 9.258819580078125 67.35336303710938 13.03177642822266 71.12630462646484 C 16.80471801757813 74.89926147460938 21.1979866027832 77.86135101318359 26.08953094482422 79.9302978515625 C 31.15331649780273 82.07209777832031 36.53296279907227 83.15808868408203 42.07904052734375 83.15808868408203 C 47.62511825561523 83.15808868408203 53.0047607421875 82.07209777832031 58.06855010986328 79.9302978515625 C 62.96009826660156 77.86135101318359 67.35336303710938 74.89926147460938 71.12630462646484 71.12630462646484 C 74.89926147460938 67.35336303710938 77.86135101318359 62.96009826660156 79.9302978515625 58.06855010986328 C 82.07209777832031 53.0047607421875 83.15808868408203 47.62511825561523 83.15808868408203 42.07904052734375 C 83.15808868408203 36.53296279907227 82.07209777832031 31.15331649780273 79.9302978515625 26.08953094482422 C 77.86135101318359 21.1979866027832 74.89926147460938 16.80471801757813 71.12630462646484 13.03177642822266 C 67.35336303710938 9.258819580078125 62.96009826660156 6.296730041503906 58.06855010986328 4.227783203125 C 53.0047607421875 2.085983276367188 47.62511825561523 0.9999923706054688 42.07904052734375 0.9999923706054688 M 42.07904052734375 -7.62939453125e-06 C 65.31864929199219 -7.62939453125e-06 84.15808868408203 18.83943176269531 84.15808868408203 42.07904052734375 C 84.15808868408203 65.31864929199219 65.31864929199219 84.15808868408203 42.07904052734375 84.15808868408203 C 18.83943176269531 84.15808868408203 -7.62939453125e-06 65.31864929199219 -7.62939453125e-06 42.07904052734375 C -7.62939453125e-06 18.83943176269531 18.83943176269531 -7.62939453125e-06 42.07904052734375 -7.62939453125e-06 Z" stroke="none" fill="#707070"/>
        </g>
        <g id="Path_2" data-name="Path 2" transform="translate(177 248.05)">
          <path id="Path_1" data-name="Path 1" d="M261,155.45H1.5V1.5H261Z" fill="#fff"/>
          <path id="Path_2-2" data-name="Path 2" d="M2.64,2.509V154.441H259.86V2.509H2.64M0,0H262.5V156.95H0Z" fill="#707070"/>
        </g>
        <g transform="matrix(1, 0, 0, 1, 0, 0)" filter="url(#Rectangle_2-3)">
          <g id="Rectangle_2-4" data-name="Rectangle 2" transform="translate(363 436)" stroke="#000" stroke-width="1">
            <rect width="76" height="9" stroke="none"/>
            <rect x="0.5" y="0.5" width="75" height="8" fill="none"/>
          </g>
        </g>
        <g transform="matrix(1, 0, 0, 1, 0, 0)" filter="url(#Line_1)">
          <line id="Line_1-2" data-name="Line 1" x2="76.276" transform="translate(363 440.95)" fill="none" stroke="#707070" stroke-width="1"/>
        </g>
      </g>
    </g>
  </g>
</svg>
