<svg xmlns="http://www.w3.org/2000/svg" xmlns:xlink="http://www.w3.org/1999/xlink" width="558" height="757" viewBox="0 0 558 757">
  <defs>
    <filter id="Ellipse_1" x="-9" y="190" width="897" height="317" filterUnits="userSpaceOnUse">
      <feOffset dy="3" input="SourceAlpha"/>
      <feGaussianBlur stdDeviation="3" result="blur"/>
      <feFlood flood-opacity="0.161"/>
      <feComposite operator="in" in2="blur"/>
      <feComposite in="SourceGraphic"/>
    </filter>
    <filter id="Ellipse_2" x="79" y="259" width="180" height="180" filterUnits="userSpaceOnUse">
      <feOffset dy="3" input="SourceAlpha"/>
      <feGaussianBlur stdDeviation="3" result="blur-2"/>
      <feFlood flood-opacity="0.161"/>
      <feComposite operator="in" in2="blur-2"/>
      <feComposite in="SourceGraphic"/>
    </filter>
    <filter id="Path_2" x="288" y="265" width="236" height="151" filterUnits="userSpaceOnUse">
      <feOffset dy="3" input="SourceAlpha"/>
      <feGaussianBlur stdDeviation="3" result="blur-3"/>
      <feFlood flood-opacity="0.161"/>
      <feComposite operator="in" in2="blur-3"/>
      <feComposite in="SourceGraphic"/>
    </filter>
    <filter id="Ellipse_4" x="303" y="403" width="45" height="45" filterUnits="userSpaceOnUse">
      <feOffset dy="3" input="SourceAlpha"/>
      <feGaussianBlur stdDeviation="3" result="blur-4"/>
      <feFlood flood-opacity="0.161"/>
      <feComposite operator="in" in2="blur-4"/>
      <feComposite in="SourceGraphic"/>
    </filter>
    <filter id="Path_1" x="342" y="403" width="45" height="45" filterUnits="userSpaceOnUse">
      <feOffset dy="3" input="SourceAlpha"/>
      <feGaussianBlur stdDeviation="3" result="blur-5"/>
      <feFlood flood-opacity="0.161"/>
      <feComposite operator="in" in2="blur-5"/>
      <feComposite in="SourceGraphic"/>
    </filter>
    <filter id="Rectangle_2" x="413" y="412" width="84" height="28" filterUnits="userSpaceOnUse">
      <feOffset dy="3" input="SourceAlpha"/>
      <feGaussianBlur stdDeviation="3" result="blur-6"/>
      <feFlood flood-opacity="0.161"/>
      <feComposite operator="in" in2="blur-6"/>
      <feComposite in="SourceGraphic"/>
    </filter>
    <filter id="Line_1" x="413" y="417" width="84" height="19" filterUnits="userSpaceOnUse">
      <feOffset dy="3" input="SourceAlpha"/>
      <feGaussianBlur stdDeviation="3" result="blur-7"/>
      <feFlood flood-opacity="0.161"/>
      <feComposite operator="in" in2="blur-7"/>
      <feComposite in="SourceGraphic"/>
    </filter>
    <clipPath id="clip-Web_1920_1">
      <rect width="558" height="757"/>
    </clipPath>
  </defs>
  <g id="Web_1920_1" data-name="Web 1920 – 1" clip-path="url(#clip-Web_1920_1)">
    <rect width="558" height="757" fill="#127334"/>
    <g transform="matrix(1, 0, 0, 1, 0, 0)" filter="url(#Ellipse_1)">
      <g id="Ellipse_1-2" data-name="Ellipse 1" transform="translate(0 196)" fill="rgba(255,255,255,0)" stroke="#0f5f2b" stroke-width="5">
        <ellipse cx="439.5" cy="149.5" rx="439.5" ry="149.5" stroke="none"/>
        <ellipse cx="439.5" cy="149.5" rx="437" ry="147" fill="none"/>
      </g>
    </g>
    <g transform="matrix(1, 0, 0, 1, 0, 0)" filter="url(#Ellipse_2)">
      <g id="Ellipse_2-2" data-name="Ellipse 2" transform="translate(88 265)" stroke="#0f5f2b" stroke-width="5">
        <circle cx="81" cy="81" r="81" stroke="none"/>
        <circle cx="81" cy="81" r="78.5" fill="none"/>
      </g>
    </g>
    <g id="Ellipse_3" data-name="Ellipse 3" transform="translate(117 294)" fill="#616161" stroke="#707070" stroke-width="1">
      <circle cx="53" cy="53" r="53" stroke="none"/>
      <circle cx="53" cy="53" r="52.5" fill="none"/>
    </g>
    <g transform="matrix(1, 0, 0, 1, 0, 0)" filter="url(#Path_2)">
      <g id="Path_2-2" data-name="Path 2" transform="translate(297 271)" fill="#fff">
        <path d="M 216.5 131.5 L 1.5 131.5 L 1.5 1.5 L 216.5 1.5 L 216.5 131.5 Z" stroke="none"/>
        <path d="M 3 3 L 3 130 L 215 130 L 215 3 L 3 3 M 0 0 L 218 0 L 218 133 L 0 133 L 0 0 Z" stroke="none" fill="#707070"/>
      </g>
    </g>
    <g transform="matrix(1, 0, 0, 1, 0, 0)" filter="url(#Ellipse_4)">
      <g id="Ellipse_4-2" data-name="Ellipse 4" transform="translate(312 409)" fill="#2ed669" stroke="#000" stroke-width="3">
        <circle cx="13.5" cy="13.5" r="13.5" stroke="none"/>
        <circle cx="13.5" cy="13.5" r="12" fill="none"/>
      </g>
    </g>
    <g transform="matrix(1, 0, 0, 1, 0, 0)" filter="url(#Path_1)">
      <g id="Path_1-2" data-name="Path 1" transform="translate(351 409)" fill="#fff">
        <path d="M 13.5 25.5 C 10.29469013214111 25.5 7.281219959259033 24.25177955627441 5.01471996307373 21.98527908325195 C 2.748219966888428 19.71878051757813 1.5 16.7053108215332 1.5 13.5 C 1.5 10.29469013214111 2.748219966888428 7.281219959259033 5.01471996307373 5.01471996307373 C 7.281219959259033 2.748219966888428 10.29469013214111 1.5 13.5 1.5 C 16.7053108215332 1.5 19.71878051757813 2.748219966888428 21.98527908325195 5.01471996307373 C 24.25177955627441 7.281219959259033 25.5 10.29469013214111 25.5 13.5 C 25.5 16.7053108215332 24.25177955627441 19.71878051757813 21.98527908325195 21.98527908325195 C 19.71878051757813 24.25177955627441 16.7053108215332 25.5 13.5 25.5 Z" stroke="none"/>
        <path d="M 13.5 3 C 7.71027946472168 3 3 7.71027946472168 3 13.5 C 3 19.28972053527832 7.71027946472168 24 13.5 24 C 19.28972053527832 24 24 19.28972053527832 24 13.5 C 24 7.71027946472168 19.28972053527832 3 13.5 3 M 13.5 0 C 20.95584106445313 0 27 6.044160842895508 27 13.5 C 27 20.95584106445313 20.95584106445313 27 13.5 27 C 6.044160842895508 27 0 20.95584106445313 0 13.5 C 0 6.044160842895508 6.044160842895508 0 13.5 0 Z" stroke="none"/>
      </g>
    </g>
    <text id="_" data-name="+" transform="translate(354 431)" fill="red" font-size="30" font-family="SegoeUI-Bold, Segoe UI" font-weight="700"><tspan x="0" y="0">+</tspan></text>
    <g transform="matrix(1, 0, 0, 1, 0, 0)" filter="url(#Rectangle_2)">
      <g id="Rectangle_2-2" data-name="Rectangle 2" transform="translate(422 418)" stroke="#000" stroke-width="1">
        <rect width="66" height="10" stroke="none"/>
        <rect x="0.5" y="0.5" width="65" height="9" fill="none"/>
      </g>
    </g>
    <g transform="matrix(1, 0, 0, 1, 0, 0)" filter="url(#Line_1)">
      <line id="Line_1-2" data-name="Line 1" x2="66" transform="translate(422 423.5)" fill="none" stroke="#707070" stroke-width="1"/>
    </g>
  </g>
</svg>
